<svg width="656" height="162" viewBox="0 0 656 162" fill="none" xmlns="http://www.w3.org/2000/svg">
<g clip-path="url(#clip0_2551_644)">
<rect width="162" height="18" fill="#FFD700"/>
<rect y="36" width="162" height="18" fill="#FFAF00"/>
<rect y="72" width="162" height="18" fill="#FF8205"/>
<rect y="108" width="162" height="18" fill="#FA500F"/>
<rect y="144" width="162" height="18" fill="#E92700"/>
<rect y="18" width="162" height="18" fill="#FFAF00"/>
<rect y="54" width="162" height="18" fill="#FF8205"/>
<rect y="90" width="162" height="18" fill="#FF8205"/>
<rect y="126" width="162" height="18" fill="#FA500F"/>
<g clip-path="url(#clip1_2551_644)">
<rect x="36" y="36" width="18" height="18" fill="white"/>
<rect y="108" width="18" height="18" fill="#F1370A"/>
<rect y="126" width="18" height="18" fill="#E91E05"/>
<rect width="18" height="18" fill="#FFD700"/>
<rect y="144" width="18" height="18" fill="#E10500"/>
<rect y="18" width="18" height="18" fill="#FEBC03"/>
<rect x="18" y="126" width="18" height="18" fill="#E91E05"/>
<rect x="18" width="18" height="18" fill="#FFD700"/>
<rect x="18" y="144" width="18" height="18" fill="#E10500"/>
<rect x="18" y="18" width="18" height="18" fill="#FEBC03"/>
<rect x="36" y="126" width="18" height="18" fill="#E91E05"/>
<rect x="36" width="18" height="18" fill="#FFD700"/>
<rect x="36" y="144" width="18" height="18" fill="#E10500"/>
<rect x="36" y="18" width="18" height="18" fill="#FEBC03"/>
<rect x="54" y="126" width="18" height="18" fill="#E91E05"/>
<rect x="54" width="18" height="18" fill="#FFD700"/>
<rect x="54" y="144" width="18" height="18" fill="#E10500"/>
<rect x="54" y="18" width="18" height="18" fill="#FEBC03"/>
<rect x="72" y="126" width="18" height="18" fill="#E91E05"/>
<rect x="72" width="18" height="18" fill="#FFD700"/>
<rect x="72" y="144" width="18" height="18" fill="#E10500"/>
<rect x="72" y="18" width="18" height="18" fill="#FEBC03"/>
<rect x="90" y="126" width="18" height="18" fill="#E91E05"/>
<rect x="90" width="18" height="18" fill="#FFD700"/>
<rect x="90" y="144" width="18" height="18" fill="#E10500"/>
<rect x="90" y="18" width="18" height="18" fill="#FEBC03"/>
<rect x="108" y="126" width="18" height="18" fill="#E91E05"/>
<rect x="108" width="18" height="18" fill="#FFD700"/>
<rect x="108" y="144" width="18" height="18" fill="#E10500"/>
<rect x="108" y="18" width="18" height="18" fill="#FEBC03"/>
<rect x="126" y="126" width="18" height="18" fill="#E91E05"/>
<rect x="126" width="18" height="18" fill="#FFD700"/>
<rect x="126" y="144" width="18" height="18" fill="#E10500"/>
<rect x="126" y="18" width="18" height="18" fill="#FEBC03"/>
<rect x="144" y="126" width="18" height="18" fill="#E91E05"/>
<rect x="144" width="18" height="18" fill="#FFD700"/>
<rect x="144" y="144" width="18" height="18" fill="#E10500"/>
<rect x="144" y="18" width="18" height="18" fill="#FEBC03"/>
<rect y="90" width="18" height="18" fill="#FA500F"/>
<rect x="126" y="90" width="18" height="18" fill="#FA500F"/>
<rect y="72" width="18" height="18" fill="#FB6B0C"/>
<rect x="126" y="72" width="18" height="18" fill="#FB6B0C"/>
<rect y="54" width="18" height="18" fill="#FC8609"/>
<rect x="126" y="54" width="18" height="18" fill="#FC8609"/>
<rect y="36" width="18" height="18" fill="#FDA106"/>
<rect x="126" y="36" width="18" height="18" fill="#FDA106"/>
<rect x="18" y="90" width="18" height="18" fill="#FA500F"/>
<rect x="144" y="90" width="18" height="18" fill="#FA500F"/>
<rect x="144" y="108" width="18" height="18" fill="#F1370A"/>
<rect x="18" y="72" width="18" height="18" fill="#FB6B0C"/>
<rect x="144" y="72" width="18" height="18" fill="#FB6B0C"/>
<rect x="18" y="54" width="18" height="18" fill="#FC8609"/>
<rect x="144" y="54" width="18" height="18" fill="#FC8609"/>
<rect x="18" y="36" width="18" height="18" fill="#FDA106"/>
<rect x="144" y="36" width="18" height="18" fill="#FDA106"/>
<rect x="54" y="90" width="18" height="18" fill="#FA500F"/>
<rect x="72" y="108" width="18" height="18" fill="#F1370A"/>
<rect x="90" y="90" width="18" height="18" fill="#FA500F"/>
<rect x="72" y="54" width="18" height="18" fill="#FC8609"/>
<rect x="54" y="36" width="18" height="18" fill="#FDA106"/>
<rect x="72" y="36" width="18" height="18" fill="#FDA106"/>
<rect x="90" y="36" width="18" height="18" fill="#FDA106"/>
<rect x="108" y="36" width="18" height="18" fill="white"/>
<rect x="72" y="90" width="18" height="18" fill="white"/>
<rect x="36" y="90" width="18" height="18" fill="white"/>
<rect x="108" y="90" width="18" height="18" fill="white"/>
<rect x="36" y="54" width="36" height="18" fill="white"/>
<rect x="18" y="108" width="54" height="18" fill="white"/>
<rect x="90" y="108" width="54" height="18" fill="white"/>
<rect x="36" y="72" width="90" height="18" fill="white"/>
<rect x="90" y="54" width="36" height="18" fill="white"/>
</g>
</g>
<path d="M645.112 122.385V40.1052H656V122.385H645.112Z" fill="white"/>
<path d="M557.556 122.385L589.154 40.1052H600.885L634.56 122.385H622.156L612.559 97.4656H578.154L569.118 122.385H557.556ZM581.297 88.5977H609.191L600.604 65.8108C597.985 58.8886 596.039 53.2012 594.767 48.7486C593.719 54.0244 592.241 59.2628 590.333 64.4637L581.297 88.5977Z" fill="white"/>
<path d="M513.89 122.385V40.1052H523.993V122.385H513.89Z" fill="white"/>
<path d="M489.026 115.033C485.285 118.213 481.674 120.458 478.194 121.768C474.752 123.078 471.047 123.732 467.081 123.732C460.533 123.732 455.501 122.142 451.983 118.962C448.466 115.744 446.708 111.647 446.708 106.67C446.708 103.752 447.362 101.095 448.672 98.7003C450.019 96.2682 451.759 94.3225 453.892 92.8633C456.062 91.404 458.494 90.3002 461.188 89.5518C463.171 89.028 466.164 88.5229 470.168 88.0365C478.325 87.0636 484.33 85.9037 488.184 84.5567C488.222 83.1722 488.24 82.2929 488.24 81.9188C488.24 77.8029 487.286 74.9031 485.378 73.2193C482.796 70.9369 478.961 69.7956 473.872 69.7956C469.12 69.7956 465.603 70.6375 463.321 72.3213C461.076 73.9676 459.411 76.9049 458.326 81.133L448.447 79.786C449.345 75.5579 450.823 72.1529 452.881 69.5711C454.939 66.9519 457.914 64.9501 461.805 63.5657C465.697 62.1438 470.205 61.4329 475.332 61.4329C480.42 61.4329 484.555 62.0316 487.735 63.2289C490.916 64.4263 493.254 65.9417 494.751 67.7751C496.248 69.5711 497.295 71.8536 497.894 74.6224C498.231 76.3436 498.399 79.4492 498.399 83.9393V97.4094C498.399 106.801 498.605 112.75 499.017 115.257C499.466 117.727 500.326 120.103 501.598 122.385H491.047C489.999 120.29 489.326 117.839 489.026 115.033ZM488.184 92.4704C484.517 93.9671 479.017 95.2392 471.683 96.2869C467.53 96.8856 464.593 97.5591 462.872 98.3074C461.151 99.0558 459.822 100.16 458.887 101.619C457.951 103.041 457.484 104.631 457.484 106.39C457.484 109.084 458.494 111.329 460.514 113.125C462.572 114.921 465.566 115.819 469.495 115.819C473.386 115.819 476.847 114.977 479.878 113.293C482.909 111.572 485.135 109.233 486.557 106.277C487.642 103.995 488.184 100.627 488.184 96.1747V92.4704Z" fill="white"/>
<path d="M411.741 122.385V62.7799H420.834V71.8162C423.153 67.588 425.286 64.8005 427.232 63.4534C429.215 62.1064 431.385 61.4329 433.742 61.4329C437.147 61.4329 440.608 62.518 444.126 64.6882L440.646 74.0612C438.176 72.6019 435.707 71.8723 433.237 71.8723C431.03 71.8723 429.047 72.5458 427.288 73.8928C425.529 75.2024 424.276 77.0358 423.528 79.3931C422.405 82.9852 421.844 86.9139 421.844 91.1795V122.385H411.741Z" fill="white"/>
<path d="M401.919 113.349L403.379 122.273C400.535 122.872 397.991 123.171 395.746 123.171C392.079 123.171 389.235 122.591 387.215 121.431C385.194 120.271 383.772 118.756 382.949 116.885C382.126 114.977 381.714 110.992 381.714 104.93V70.6375H374.306V62.7799H381.714V48.0189L391.761 41.9573V62.7799H401.919V70.6375H391.761V105.492C391.761 108.373 391.929 110.225 392.266 111.048C392.64 111.871 393.22 112.526 394.006 113.012C394.829 113.499 395.989 113.742 397.486 113.742C398.608 113.742 400.086 113.611 401.919 113.349Z" fill="white"/>
<path d="M318.348 104.594L328.339 103.022C328.9 107.026 330.453 110.094 332.997 112.227C335.579 114.359 339.171 115.426 343.773 115.426C348.413 115.426 351.855 114.49 354.1 112.619C356.345 110.711 357.468 108.485 357.468 105.941C357.468 103.658 356.476 101.862 354.493 100.552C353.109 99.6545 349.666 98.5132 344.166 97.1288C336.758 95.258 331.613 93.649 328.732 92.302C325.888 90.9176 323.718 89.028 322.221 86.6333C320.762 84.2012 320.032 81.5259 320.032 78.6074C320.032 75.9507 320.631 73.4999 321.828 71.2549C323.063 68.9725 324.728 67.0829 326.823 65.5862C328.395 64.4263 330.528 63.4534 333.222 62.6677C335.953 61.8445 338.872 61.4329 341.977 61.4329C346.654 61.4329 350.752 62.1064 354.269 63.4534C357.823 64.8005 360.443 66.6339 362.126 68.9538C363.81 71.2362 364.97 74.3044 365.606 78.1584L355.728 79.5054C355.279 76.4372 353.969 74.0425 351.799 72.3213C349.666 70.6001 346.636 69.7395 342.707 69.7395C338.067 69.7395 334.756 70.5066 332.773 72.0407C330.79 73.5748 329.798 75.3708 329.798 77.4287C329.798 78.7383 330.21 79.917 331.033 80.9646C331.856 82.0497 333.147 82.9477 334.905 83.6587C335.916 84.0328 338.89 84.8934 343.829 86.2404C350.976 88.1487 355.953 89.7202 358.759 90.955C361.603 92.1523 363.829 93.9109 365.438 96.2308C367.047 98.5507 367.851 101.432 367.851 104.874C367.851 108.242 366.86 111.422 364.877 114.415C362.931 117.371 360.106 119.673 356.402 121.319C352.697 122.928 348.507 123.732 343.829 123.732C336.084 123.732 330.172 122.123 326.094 118.906C322.053 115.688 319.471 110.917 318.348 104.594Z" fill="white"/>
<path d="M296.852 51.7232V40.1052H306.955V51.7232H296.852ZM296.852 122.385V62.78H306.955V122.385H296.852Z" fill="white"/>
<path d="M202 122.385V40.1052H218.389L237.864 98.3636C239.66 103.789 240.97 107.849 241.793 110.543C242.728 107.549 244.188 103.153 246.171 97.3533L265.871 40.1052H280.52V122.385H270.024V53.5192L246.115 122.385H236.293L212.495 52.3406V122.385H202Z" fill="white"/>
<defs>
<clipPath id="clip0_2551_644">
<rect width="162" height="162" fill="white"/>
</clipPath>
<clipPath id="clip1_2551_644">
<rect width="162" height="162" fill="white"/>
</clipPath>
</defs>
</svg>
