<svg xmlns="http://www.w3.org/2000/svg" viewBox="0 0 142 32" width="142" height="32" fill="none">
  <defs>
    <radialGradient id="orbmark-grad-dark" cx="50%" cy="50%" r="50%" fx="50%" fy="50%">
      <stop stop-color="#EAEAEA" />
      <stop offset="100%" stop-color="#FFFFFF" />
    </radialGradient>
  </defs>

  <g>
    <circle cx="16" cy="16" r="16" fill="url(#orbmark-grad-dark)" />
  </g>

  <g transform="translate(38 8.5)" color="#FFFFFF">
    <path d="M0 0.248618H3.06859L4.33099 7.70718C4.30509 7.58287 4.4022 8.1837 4.62231 9.50967C4.6741 9.92403 4.71294 10.2348 4.73884 10.442C4.77768 10.6492 4.823 10.953 4.87479 11.3536H4.93305C5.01074 10.9392 5.069 10.6354 5.10785 10.442C5.14669 10.2348 5.20495 9.93094 5.28264 9.53039C5.34738 9.22652 5.41212 8.92265 5.47686 8.61878C5.54159 8.31492 5.60633 8.01105 5.67107 7.70718L7.36074 0.248618H10.4293L12.1773 7.70718C12.2161 7.85912 12.2808 8.15608 12.3715 8.59807C12.4751 9.04006 12.5657 9.48895 12.6434 9.94475C12.734 10.4006 12.8182 10.8702 12.8959 11.3536H12.9541C12.993 11.0359 13.0253 10.8011 13.0512 10.6492C13.0771 10.4834 13.1095 10.2486 13.1483 9.94475C13.2001 9.58564 13.2519 9.22652 13.3037 8.8674C13.3555 8.49447 13.4138 8.10773 13.4785 7.70718L14.7215 0.248618H17.7706L14.5467 14.7514H11.3421L9.69131 7.45856C9.60068 7.08564 9.51005 6.69889 9.41941 6.29834C9.34173 5.89779 9.26404 5.49033 9.18636 5.07597C9.09572 4.56492 9.00509 4.06077 8.91446 3.56354H8.85619C8.63608 4.94475 8.39008 6.26381 8.11818 7.52072L6.44793 14.7514H3.22396L0 0.248618Z" fill="currentColor" />
    <path d="M18.8061 0.248618H21.5056V6.5884H21.292C21.4603 5.78729 21.8164 5.17956 22.3602 4.76519C22.904 4.35083 23.5578 4.14365 24.3218 4.14365C24.9691 4.14365 25.5 4.22652 25.9143 4.39227C26.3286 4.5442 26.6976 4.80663 27.0213 5.17956C27.358 5.5663 27.5781 6.00829 27.6817 6.50552C27.7852 6.98895 27.837 7.63812 27.837 8.45304V14.7514H25.118V8.59807C25.118 8.10083 25.0857 7.73481 25.0209 7.5C24.9562 7.25138 24.8267 7.02348 24.6325 6.8163C24.4642 6.63674 24.2829 6.51934 24.0887 6.46409C23.8945 6.39503 23.642 6.3605 23.3313 6.3605C22.8522 6.3605 22.4314 6.57459 22.0689 7.00276C21.7063 7.43094 21.5251 8.10773 21.5251 9.03315V14.7514H18.8061V0.248618Z" fill="currentColor" />
    <path d="M29.6267 4.39227H32.3457V14.7514H29.6267V4.39227ZM29.6267 12.4724H32.3457V14.7514H29.6267V12.4724ZM29.6267 4.39227H32.3457V6.67127H29.6267V4.39227ZM29.6267 0.0414359H32.3457V3.02486H29.6267V0.0414359Z" fill="currentColor" />
    <path d="M38.0529 14.855C37.0559 14.855 36.2726 14.6271 35.7029 14.1713C35.1461 13.7017 34.8678 12.9558 34.8678 11.9337V6.67127H33.4694V4.39227H34.8678V1.51243H37.5479V4.39227H39.5289V6.67127H37.5479V11.6022C37.5479 11.8785 37.6256 12.0718 37.781 12.1823C37.9493 12.2928 38.2083 12.3481 38.5578 12.3481C38.8297 12.3481 39.1275 12.3135 39.4512 12.2445L39.4901 14.7099C39.1146 14.8066 38.6355 14.855 38.0529 14.855Z" fill="currentColor" />
    <path d="M45.1504 15C44.4124 15 43.7391 14.8826 43.1305 14.6478C42.5349 14.413 42.03 14.0746 41.6157 13.6326C41.1495 13.1492 40.8 12.5691 40.5669 11.8923C40.3338 11.2017 40.2173 10.4213 40.2173 9.5511C40.2173 8.70856 40.3274 7.94889 40.5475 7.2721C40.7805 6.58149 41.1301 5.99447 41.5962 5.51105C42.0235 5.05525 42.5285 4.71685 43.1111 4.49586C43.7067 4.26105 44.38 4.14365 45.131 4.14365C45.8949 4.14365 46.5746 4.26795 47.1702 4.51657C47.7658 4.76519 48.2708 5.12431 48.6851 5.59392C49.1512 6.1326 49.4943 6.80249 49.7144 7.60359C49.9345 8.39088 50.0316 9.29558 50.0057 10.3177H42.8975C42.9104 11.1878 43.1046 11.8439 43.4801 12.2859C43.8686 12.7279 44.4253 12.9489 45.1504 12.9489C45.7589 12.9489 46.225 12.8108 46.5487 12.5345C46.8854 12.2445 47.1055 11.8232 47.209 11.2707L49.8504 11.5193C49.5655 12.6657 49.0217 13.5359 48.219 14.1298C47.4292 14.7099 46.4063 15 45.1504 15ZM47.2479 8.32873C47.222 7.98342 47.1637 7.68646 47.0731 7.43784C46.9825 7.18923 46.853 6.96133 46.6847 6.75414C46.5034 6.54696 46.2833 6.39503 46.0243 6.29834C45.7783 6.20166 45.4805 6.15331 45.131 6.15331C44.7296 6.15331 44.3865 6.21547 44.1016 6.33978C43.8168 6.46409 43.5837 6.65746 43.4024 6.91989C43.273 7.09945 43.1629 7.31354 43.0723 7.56215C42.9946 7.79696 42.9428 8.05249 42.9169 8.32873H47.2479Z" fill="currentColor" />
    <path d="M61.243 15C59.8058 15 58.5758 14.7099 57.5529 14.1298C56.5301 13.5497 55.7468 12.7003 55.203 11.5815C54.6721 10.4627 54.4067 9.10221 54.4067 7.5C54.4067 6.0221 54.6721 4.72376 55.203 3.60497C55.7468 2.47238 56.5301 1.5884 57.5529 0.953039C58.5758 0.31768 59.8058 0 61.243 0C62.2529 0 63.1787 0.179558 64.0203 0.538673C64.8748 0.89779 65.5934 1.44337 66.1761 2.17541C66.7717 2.89365 67.1925 3.79144 67.4385 4.86878L64.4476 5.46961C64.2922 4.53039 63.9426 3.79834 63.3988 3.27348C62.868 2.73481 62.1494 2.46547 61.243 2.46547C60.5827 2.46547 60.013 2.55525 59.5339 2.73481C59.0549 2.91436 58.6664 3.21133 58.3687 3.62569C58.0579 4.05387 57.8248 4.59945 57.6695 5.26243C57.5271 5.9116 57.4558 6.65746 57.4558 7.5C57.4558 8.37017 57.5076 9.0884 57.6112 9.6547C57.7148 10.221 57.909 10.7182 58.1939 11.1464C58.5046 11.616 58.906 11.9682 59.398 12.203C59.89 12.424 60.505 12.5345 61.243 12.5345C62.1235 12.5345 62.8356 12.2859 63.3794 11.7887C63.9232 11.2914 64.2987 10.6077 64.5058 9.73757L67.5356 10.587C67.0177 12.0097 66.2149 13.1008 65.1273 13.8605C64.0397 14.6202 62.745 15 61.243 15Z" fill="currentColor" />
    <path d="M68.6896 4.39227H71.4087V14.7514H68.6896V4.39227ZM68.6896 12.4724H71.4087V14.7514H68.6896V12.4724ZM68.6896 4.39227H71.4087V6.67127H68.6896V4.39227ZM68.6896 0.0414359H71.4087V3.02486H68.6896V0.0414359Z" fill="currentColor" />
    <path d="M73.2704 4.39227H75.9506V7.12707L75.834 6.91989C75.9117 6.28453 76.0994 5.75967 76.3972 5.3453C76.708 4.93094 77.0899 4.62707 77.5431 4.4337C77.9963 4.24033 78.4948 4.14365 79.0386 4.14365C79.1551 4.14365 79.2716 4.14365 79.3882 4.14365L79.3299 6.75414C79.1227 6.72652 78.9544 6.71271 78.8249 6.71271C78.2034 6.71271 77.6791 6.83011 77.2518 7.06492C76.8375 7.28591 76.5202 7.65193 76.3001 8.16298C76.093 8.66022 75.9894 9.3163 75.9894 10.1312V14.7514H73.2704V4.39227Z" fill="currentColor" />
    <path d="M84.4613 15C83.4125 15 82.5126 14.7859 81.7617 14.3577C81.0107 13.9296 80.441 13.308 80.0526 12.4931C79.6641 11.6782 79.4699 10.7044 79.4699 9.57182C79.4699 8.50829 79.6641 7.56906 80.0526 6.75414C80.4539 5.92541 81.0301 5.28315 81.7811 4.82735C82.532 4.37155 83.4254 4.14365 84.4613 4.14365C85.7431 4.14365 86.753 4.48204 87.491 5.15884C88.229 5.82182 88.7016 6.73343 88.9088 7.89365L86.3257 8.37016C86.2092 7.72099 86.015 7.21685 85.7431 6.85773C85.4712 6.48481 85.0439 6.29834 84.4613 6.29834C84.0987 6.29834 83.7944 6.35359 83.5484 6.46409C83.3024 6.57459 83.1017 6.74724 82.9464 6.98204C82.7651 7.24447 82.6292 7.58978 82.5385 8.01795C82.4608 8.44613 82.422 8.96409 82.422 9.57182C82.422 10.7182 82.5709 11.5539 82.8687 12.0787C83.1665 12.5898 83.6973 12.8453 84.4613 12.8453C84.9662 12.8453 85.3676 12.6934 85.6654 12.3895C85.9761 12.0856 86.1962 11.6436 86.3257 11.0635L88.967 11.3536C88.8634 12.058 88.6174 12.6865 88.229 13.2389C87.8406 13.7914 87.3227 14.2265 86.6753 14.5442C86.0279 14.8481 85.2899 15 84.4613 15Z" fill="currentColor" />
    <path d="M90.1511 0.248618H92.8701V14.7514H90.1511V0.248618ZM90.1511 12.4724H92.8701V14.7514H90.1511V12.4724ZM90.1511 0.248618H91.6077V2.52762H90.1511V0.248618Z" fill="currentColor" />
    <path d="M99.1405 15C98.4025 15 97.7292 14.8826 97.1207 14.6478C96.5251 14.413 96.0202 14.0746 95.6058 13.6326C95.1397 13.1492 94.7901 12.5691 94.5571 11.8923C94.324 11.2017 94.2075 10.4213 94.2075 9.5511C94.2075 8.70856 94.3176 7.94889 94.5377 7.2721C94.7707 6.58149 95.1203 5.99447 95.5864 5.51105C96.0137 5.05525 96.5186 4.71685 97.1013 4.49586C97.6969 4.26105 98.3702 4.14365 99.1211 4.14365C99.885 4.14365 100.565 4.26795 101.16 4.51657C101.756 4.76519 102.261 5.12431 102.675 5.59392C103.141 6.1326 103.484 6.80249 103.705 7.60359C103.925 8.39088 104.022 9.29558 103.996 10.3177H96.8876C96.9006 11.1878 97.0948 11.8439 97.4703 12.2859C97.8587 12.7279 98.4155 12.9489 99.1405 12.9489C99.7491 12.9489 100.215 12.8108 100.539 12.5345C100.876 12.2445 101.096 11.8232 101.199 11.2707L103.841 11.5193C103.556 12.6657 103.012 13.5359 102.209 14.1298C101.419 14.7099 100.396 15 99.1405 15ZM101.238 8.32873C101.212 7.98342 101.154 7.68646 101.063 7.43784C100.973 7.18923 100.843 6.96133 100.675 6.75414C100.494 6.54696 100.273 6.39503 100.015 6.29834C99.7685 6.20166 99.4707 6.15331 99.1211 6.15331C98.7197 6.15331 98.3766 6.21547 98.0918 6.33978C97.8069 6.46409 97.5739 6.65746 97.3926 6.91989C97.2631 7.09945 97.1531 7.31354 97.0624 7.56215C96.9848 7.79696 96.933 8.05249 96.9071 8.32873H101.238Z" fill="currentColor" />
  </g>
</svg>
