<?xml version="1.0" encoding="UTF-8"?>
<svg id="Layer_2" data-name="Layer 2" xmlns="http://www.w3.org/2000/svg" viewBox="0 0 992.51 869.75">
  <g id="Grid">
    <g id="MHm14D.tif">
      <g>
        <path d="M788.84,354.43v86.94c0,.33,1.37,1.63,2.3,1.55,2.78-.24,10.38-4.47,14.04-5.46,68.88-18.71,126.85,56.59,90.41,118.12-41.87,70.69-148.7,41-149.53-44.51-.85-87.88,4.14-178.36.85-266.1-3.22-85.8-44.26-162.42-117.49-207.8-122.33-75.81-282.6-31.38-349.68,94.54-32.56,61.11-28.8,114.39-28.32,181.54.01,1.52-.7,3.28-.58,4.37.33,3.07,13.29,9.91,16.53,11.83,21.87,12.99,44.33,25.09,66.25,37.99l2.12-.61c1.8-38.87-1.22-78.53.35-117.31,2.1-51.71,21.31-96.6,62.29-128.84,104.55-82.27,255.82-10.88,262.32,119.8,2.88,93.15-4.31,189.06.74,281.81,9.08,166.54,227.19,217.39,308.67,75.59,69.56-121.05-32.78-268.9-170.3-246.72-1.86.3-10.45,1.66-10.97,3.28ZM402.51,286.13c35.93,38.92,96.23-15.19,60.64-55.75-35.74-40.74-99.27,13.9-60.64,55.75ZM534.21,285.63c10.52,11.92,29.34,16.34,44.19,11.29,37.26-12.67,37.48-65.56-.03-78.31-39.84-13.54-71.87,35.63-44.16,67.02ZM453.77,492.69c.86-1.23-2.22-2.71-3.06-3.29-15.2-10.45-33.8-19.76-49.79-29.66-57.35-35.53-142.62-98.21-208.47-108.59C95.46,335.86,5.33,407.59.23,505.79c-5.94,114.4,102.8,200.3,212.93,167.92,53.9-15.85,97.78-60.2,112.28-114.58l-75.91-42.49-1.79,1.28c.24,18.26-8.03,37.6-19.96,51.24-35.69,40.81-101.47,36.14-130.84-9.36-44.55-69.02,26.89-152.44,102.89-120.11,57.41,24.42,108.92,65.9,163.48,95.11,1.98,1.06,4.03,2.19,6.18,2.86l84.27-44.97ZM555.26,761.3c-55.09,56.84-150.55,9.25-140.29-69.43,4.83-37,31.88-54.75,60.6-72.81,46.02-28.94,95.33-52.33,142.42-79.45,2.59-14.1.97-28.54,1.41-42.81.48-15.86,1.85-32.03,2.32-47.91.07-2.25-.1-4.26-.8-6.4-12.37,6.23-24.07,13.71-36.22,20.36-40.8,22.34-82.94,42.36-123.19,65.7-59.73,34.63-113.27,70.23-127.47,143.11-28.3,145.25,133.73,252.26,256.55,168.82,81.04-55.05,97.29-176.14,29.22-248.11-1.87-1.98-4.27-5.47-7.14-4.16l-72.59,43.63c-.98,3.14,1.03,2.37,2.84,3.67,42.21,30.49,49.13,87.82,12.34,125.78Z"/>
        <path d="M788.84,354.43c.52-1.62,9.11-2.98,10.97-3.28,137.52-22.18,239.86,125.66,170.3,246.72-81.47,141.8-299.58,90.95-308.67-75.59-5.06-92.74,2.14-188.66-.74-281.81-6.49-130.68-157.76-202.07-262.32-119.8-40.97,32.24-60.19,77.13-62.29,128.84-1.57,38.78,1.45,78.45-.35,117.31l-2.12.61c-21.92-12.9-44.38-25-66.25-37.99-3.23-1.92-16.19-8.76-16.53-11.83-.12-1.09.59-2.85.58-4.37-.48-67.15-4.24-120.42,28.32-181.54C346.81,5.79,507.09-38.65,629.41,37.17c73.23,45.38,114.27,122,117.49,207.8,3.29,87.74-1.7,178.22-.85,266.1.83,85.52,107.66,115.21,149.53,44.51,36.44-61.53-21.53-136.83-90.41-118.12-3.65.99-11.25,5.22-14.04,5.46-.92.08-2.3-1.23-2.3-1.55v-86.94Z"/>
        <path d="M555.26,761.3c36.79-37.96,29.87-95.29-12.34-125.78-1.8-1.3-3.81-.53-2.84-3.67l72.59-43.63c2.87-1.31,5.27,2.18,7.14,4.16,68.07,71.97,51.81,193.06-29.22,248.11-122.83,83.43-284.85-23.58-256.55-168.82,14.2-72.88,67.74-108.48,127.47-143.11,40.25-23.33,82.39-43.36,123.19-65.7,12.15-6.65,23.85-14.13,36.22-20.36.7,2.14.87,4.14.8,6.4-.47,15.88-1.84,32.05-2.32,47.91-.44,14.27,1.17,28.71-1.41,42.81-47.09,27.12-96.4,50.51-142.42,79.45-28.72,18.06-55.78,35.81-60.6,72.81-10.27,78.68,85.2,126.27,140.29,69.43Z"/>
        <path d="M453.77,492.69l-84.27,44.97c-2.16-.67-4.2-1.8-6.18-2.86-54.56-29.21-106.08-70.7-163.48-95.11-76-32.33-147.44,51.09-102.89,120.11,29.37,45.5,95.14,50.17,130.84,9.36,11.93-13.64,20.2-32.98,19.96-51.24l1.79-1.28,75.91,42.49c-14.5,54.38-58.38,98.73-112.28,114.58C103.03,706.09-5.71,620.19.23,505.79c5.1-98.2,95.23-169.94,192.21-154.64,65.85,10.38,151.12,73.06,208.47,108.59,15.98,9.9,34.59,19.22,49.79,29.66.84.58,3.92,2.06,3.06,3.29Z"/>
        <path d="M534.21,285.63c-27.7-31.39,4.32-80.56,44.16-67.02,37.51,12.75,37.29,65.64.03,78.31-14.85,5.05-33.67.63-44.19-11.29Z"/>
        <path d="M402.51,286.13c-38.63-41.85,24.9-96.49,60.64-55.75,35.59,40.57-24.71,94.67-60.64,55.75Z"/>
      </g>
    </g>
  </g>
</svg>
